<svg width="1600" height="900" viewBox="0 0 1600 900" xmlns="http://www.w3.org/2000/svg"><defs><linearGradient id="g" x1="0" y1="0" x2="1" y2="0"><stop stop-color="#1d4ed8"/><stop offset="1" stop-color="#0891b2"/></linearGradient></defs><rect width="1600" height="900" fill="#f1f5f9"/><rect x="90" y="70" width="1420" height="760" rx="34" fill="white"/><text x="145" y="160" font-family="Segoe UI,Arial" font-size="48" font-weight="800" fill="#0f172a">Data Analysis Summary</text><text x="145" y="205" font-family="Segoe UI,Arial" font-size="24" fill="#64748b">Portfolio view for exploratory analytics notebooks and Python data workflows.</text><rect x="145" y="275" width="300" height="145" rx="24" fill="#eff6ff"/><text x="180" y="325" font-family="Segoe UI,Arial" font-size="20" font-weight="800" fill="#1d4ed8">Dataset Checks</text><text x="180" y="382" font-family="Segoe UI,Arial" font-size="42" font-weight="800" fill="#0f172a">Ready</text><rect x="490" y="275" width="300" height="145" rx="24" fill="#ecfdf5"/><text x="525" y="325" font-family="Segoe UI,Arial" font-size="20" font-weight="800" fill="#047857">Transform Steps</text><text x="525" y="382" font-family="Segoe UI,Arial" font-size="42" font-weight="800" fill="#0f172a">Clean</text><rect x="835" y="275" width="300" height="145" rx="24" fill="#fefce8"/><text x="870" y="325" font-family="Segoe UI,Arial" font-size="20" font-weight="800" fill="#a16207">Notebook Status</text><text x="870" y="382" font-family="Segoe UI,Arial" font-size="42" font-weight="800" fill="#0f172a">Study</text><rect x="1180" y="275" width="260" height="145" rx="24" fill="#f8fafc"/><text x="1215" y="325" font-family="Segoe UI,Arial" font-size="20" font-weight="800" fill="#475569">Stack</text><text x="1215" y="382" font-family="Segoe UI,Arial" font-size="36" font-weight="800" fill="#0f172a">Python</text><rect x="145" y="500" width="620" height="235" rx="26" fill="#f8fafc"/><text x="185" y="555" font-family="Segoe UI,Arial" font-size="26" font-weight="800" fill="#0f172a">Workflow Coverage</text><rect x="185" y="610" width="480" height="18" rx="9" fill="#cbd5e1"/><rect x="185" y="610" width="390" height="18" rx="9" fill="url(#g)"/><rect x="185" y="660" width="480" height="18" rx="9" fill="#cbd5e1"/><rect x="185" y="660" width="320" height="18" rx="9" fill="url(#g)"/><rect x="185" y="710" width="480" height="18" rx="9" fill="#cbd5e1"/><rect x="185" y="710" width="420" height="18" rx="9" fill="url(#g)"/><rect x="835" y="500" width="605" height="235" rx="26" fill="#eff6ff"/><text x="875" y="555" font-family="Segoe UI,Arial" font-size="26" font-weight="800" fill="#0f172a">Notebook Capabilities</text><text x="875" y="615" font-family="Segoe UI,Arial" font-size="24" fill="#334155">Data import and inspection</text><text x="875" y="660" font-family="Segoe UI,Arial" font-size="24" fill="#334155">Transformation and validation</text><text x="875" y="705" font-family="Segoe UI,Arial" font-size="24" fill="#334155">Summary reporting for portfolio presentation</text></svg>