<svg width="1600" height="900" viewBox="0 0 1600 900" xmlns="http://www.w3.org/2000/svg">
  <defs><linearGradient id="g" x1="0" y1="0" x2="1" y2="1"><stop stop-color="#0f172a"/><stop offset="1" stop-color="#2563eb"/></linearGradient><filter id="s"><feDropShadow dx="0" dy="18" stdDeviation="24" flood-opacity=".18"/></filter></defs>
  <rect width="1600" height="900" fill="#f8fafc"/>
  <circle cx="1320" cy="120" r="260" fill="#dbeafe"/>
  <circle cx="180" cy="820" r="260" fill="#dcfce7"/>
  <rect x="80" y="60" width="1440" height="780" rx="36" fill="white" filter="url(#s)"/>
  <rect x="80" y="60" width="1440" height="86" rx="36" fill="url(#g)"/>
  <circle cx="125" cy="103" r="10" fill="#ef4444"/><circle cx="158" cy="103" r="10" fill="#f59e0b"/><circle cx="191" cy="103" r="10" fill="#22c55e"/>
  <text x="240" y="111" font-family="Segoe UI,Arial" font-size="24" font-weight="700" fill="#e2e8f0">IBM Data Analysis Notebook</text>
  <text x="130" y="230" font-family="Segoe UI,Arial" font-size="46" font-weight="800" fill="#0f172a">Analytics Notebook Workflow</text>
  <text x="130" y="278" font-family="Segoe UI,Arial" font-size="24" fill="#64748b">Python-based data preparation, exploration and reporting workflow.</text>
  <g font-family="Segoe UI,Arial">
    <rect x="130" y="350" width="390" height="310" rx="24" fill="#f1f5f9"/>
    <text x="165" y="405" font-size="25" font-weight="800" fill="#1d4ed8">01 • Load Data</text>
    <rect x="165" y="445" width="290" height="16" rx="8" fill="#cbd5e1"/><rect x="165" y="480" width="230" height="16" rx="8" fill="#cbd5e1"/><rect x="165" y="515" width="315" height="16" rx="8" fill="#cbd5e1"/>
    <text x="165" y="590" font-size="22" fill="#475569">CSV / notebook source</text>
    <rect x="605" y="350" width="390" height="310" rx="24" fill="#eff6ff"/>
    <text x="640" y="405" font-size="25" font-weight="800" fill="#1d4ed8">02 • Transform</text>
    <rect x="640" y="455" width="280" height="22" rx="11" fill="#93c5fd"/><rect x="640" y="505" width="220" height="22" rx="11" fill="#60a5fa"/><rect x="640" y="555" width="310" height="22" rx="11" fill="#3b82f6"/>
    <text x="640" y="625" font-size="22" fill="#475569">Cleaning + feature prep</text>
    <rect x="1080" y="350" width="390" height="310" rx="24" fill="#ecfdf5"/>
    <text x="1115" y="405" font-size="25" font-weight="800" fill="#047857">03 • Insights</text>
    <rect x="1120" y="560" width="45" height="60" fill="#34d399"/><rect x="1190" y="500" width="45" height="120" fill="#10b981"/><rect x="1260" y="455" width="45" height="165" fill="#059669"/><rect x="1330" y="525" width="45" height="95" fill="#047857"/>
    <text x="1115" y="675" font-size="22" fill="#475569">Visual summary output</text>
  </g>
</svg>